<?xml version="1.0" encoding="UTF-8"?>
<svg width="3213px" height="3213px" viewBox="0 0 3213 3213" xmlns="http://www.w3.org/2000/svg" xmlns:xlink="http://www.w3.org/1999/xlink" version="1.1">
 <!-- Generated by Pixelmator Pro 2.1.2 -->
 <g id="Damiera">
  <g id="Griglia">
   <defs>
    <path id="Bordo" d="M161 3052 L3052 3052 3052 161 161 161 Z"/>
   </defs>
   <defs>
    <path id="stroke-path" d="M3046 167 L167 167 167 3046 3046 3046 Z"/>
   </defs>
   <use id="Bordo-1" stroke="#000000" stroke-opacity="1" stroke-linecap="round" fill="none" stroke-width="12" xlink:href="#stroke-path"/>
   <g id="Linea-1">
    <path id="1A" d="M161 3049.375 L522.375 3049.375 522.375 2688 161 2688 Z" fill="#000000" fill-opacity="1" stroke="none"/>
    <path id="1B" d="M522 3049.375 L883.375 3049.375 883.375 2688 522 2688 Z" fill="none" stroke="none"/>
    <path id="1C" d="M883 3049.375 L1244.375 3049.375 1244.375 2688 883 2688 Z" fill="#000000" fill-opacity="1" stroke="none"/>
    <path id="1D" d="M1244 3049.375 L1605.375 3049.375 1605.375 2688 1244 2688 Z" fill="none" stroke="none"/>
    <path id="1E" d="M1605 3049.375 L1966.375 3049.375 1966.375 2688 1605 2688 Z" fill="#000000" fill-opacity="1" stroke="none"/>
    <path id="1F" d="M1966 3049.375 L2327.375 3049.375 2327.375 2688 1966 2688 Z" fill="none" stroke="none"/>
    <path id="1G" d="M2327 3049.375 L2688.375 3049.375 2688.375 2688 2327 2688 Z" fill="#000000" fill-opacity="1" stroke="none"/>
    <path id="1H" d="M2688 3049.375 L3049.375 3049.375 3049.375 2688 2688 2688 Z" fill="none" stroke="none"/>
   </g>
   <g id="Linea-2">
    <path id="2A" d="M161 2688.375 L522.375 2688.375 522.375 2327 161 2327 Z" fill="none" stroke="none"/>
    <path id="2B" d="M522 2688.375 L883.375 2688.375 883.375 2327 522 2327 Z" fill="#000000" fill-opacity="1" stroke="none"/>
    <path id="2C" d="M883 2688.375 L1244.375 2688.375 1244.375 2327 883 2327 Z" fill="none" stroke="none"/>
    <path id="2D" d="M1244 2688.375 L1605.375 2688.375 1605.375 2327 1244 2327 Z" fill="#000000" fill-opacity="1" stroke="none"/>
    <path id="2E" d="M1605 2688.375 L1966.375 2688.375 1966.375 2327 1605 2327 Z" fill="none" stroke="none"/>
    <path id="2F" d="M1966 2688.375 L2327.375 2688.375 2327.375 2327 1966 2327 Z" fill="#000000" fill-opacity="1" stroke="none"/>
    <path id="2G" d="M2327 2688.375 L2688.375 2688.375 2688.375 2327 2327 2327 Z" fill="none" stroke="none"/>
    <path id="2H" d="M2688 2688.375 L3049.375 2688.375 3049.375 2327 2688 2327 Z" fill="#000000" fill-opacity="1" stroke="none"/>
   </g>
   <g id="Linea-3">
    <path id="3A" d="M161 2327.375 L522.375 2327.375 522.375 1966 161 1966 Z" fill="#000000" fill-opacity="1" stroke="none"/>
    <path id="3B" d="M522 2327.375 L883.375 2327.375 883.375 1966 522 1966 Z" fill="none" stroke="none"/>
    <path id="3C" d="M883 2327.375 L1244.375 2327.375 1244.375 1966 883 1966 Z" fill="#000000" fill-opacity="1" stroke="none"/>
    <path id="3D" d="M1244 2327.375 L1605.375 2327.375 1605.375 1966 1244 1966 Z" fill="none" stroke="none"/>
    <path id="3E" d="M1605 2327.375 L1966.375 2327.375 1966.375 1966 1605 1966 Z" fill="#000000" fill-opacity="1" stroke="none"/>
    <path id="3F" d="M1966 2327.375 L2327.375 2327.375 2327.375 1966 1966 1966 Z" fill="none" stroke="none"/>
    <path id="3G" d="M2327 2327.375 L2688.375 2327.375 2688.375 1966 2327 1966 Z" fill="#000000" fill-opacity="1" stroke="none"/>
    <path id="3H" d="M2688 2327.375 L3049.375 2327.375 3049.375 1966 2688 1966 Z" fill="none" stroke="none"/>
   </g>
   <g id="Linea-4">
    <path id="4A" d="M161 1966.375 L522.375 1966.375 522.375 1605 161 1605 Z" fill="none" stroke="none"/>
    <path id="4B" d="M522 1966.375 L883.375 1966.375 883.375 1605 522 1605 Z" fill="#000000" fill-opacity="1" stroke="none"/>
    <path id="4C" d="M883 1966.375 L1244.375 1966.375 1244.375 1605 883 1605 Z" fill="none" stroke="none"/>
    <path id="4D" d="M1244 1966.375 L1605.375 1966.375 1605.375 1605 1244 1605 Z" fill="#000000" fill-opacity="1" stroke="none"/>
    <path id="4E" d="M1605 1966.375 L1966.375 1966.375 1966.375 1605 1605 1605 Z" fill="none" stroke="none"/>
    <path id="4F" d="M1966 1966.375 L2327.375 1966.375 2327.375 1605 1966 1605 Z" fill="#000000" fill-opacity="1" stroke="none"/>
    <path id="4G" d="M2327 1966.375 L2688.375 1966.375 2688.375 1605 2327 1605 Z" fill="none" stroke="none"/>
    <path id="4H" d="M2688 1966.375 L3049.375 1966.375 3049.375 1605 2688 1605 Z" fill="#000000" fill-opacity="1" stroke="none"/>
   </g>
   <g id="Linea-5">
    <path id="5A" d="M161 1605.375 L522.375 1605.375 522.375 1244 161 1244 Z" fill="#000000" fill-opacity="1" stroke="none"/>
    <path id="5B" d="M522 1605.375 L883.375 1605.375 883.375 1244 522 1244 Z" fill="none" stroke="none"/>
    <path id="5C" d="M883 1605.375 L1244.375 1605.375 1244.375 1244 883 1244 Z" fill="#000000" fill-opacity="1" stroke="none"/>
    <path id="5D" d="M1244 1605.375 L1605.375 1605.375 1605.375 1244 1244 1244 Z" fill="none" stroke="none"/>
    <path id="5E" d="M1605 1605.375 L1966.375 1605.375 1966.375 1244 1605 1244 Z" fill="#000000" fill-opacity="1" stroke="none"/>
    <path id="5F" d="M1966 1605.375 L2327.375 1605.375 2327.375 1244 1966 1244 Z" fill="none" stroke="none"/>
    <path id="5G" d="M2327 1605.375 L2688.375 1605.375 2688.375 1244 2327 1244 Z" fill="#000000" fill-opacity="1" stroke="none"/>
    <path id="5H" d="M2688 1605.375 L3049.375 1605.375 3049.375 1244 2688 1244 Z" fill="none" stroke="none"/>
   </g>
   <g id="Linea-6">
    <path id="6A" d="M161 1238.375 L522.375 1238.375 522.375 877 161 877 Z" fill="none" stroke="none"/>
    <path id="6B" d="M522 1244.375 L883.375 1244.375 883.375 883 522 883 Z" fill="#000000" fill-opacity="1" stroke="none"/>
    <path id="6C" d="M883 1244.375 L1244.375 1244.375 1244.375 883 883 883 Z" fill="none" stroke="none"/>
    <path id="6D" d="M1244 1244.375 L1605.375 1244.375 1605.375 883 1244 883 Z" fill="#000000" fill-opacity="1" stroke="none"/>
    <path id="6E" d="M1605 1244.375 L1966.375 1244.375 1966.375 883 1605 883 Z" fill="none" stroke="none"/>
    <path id="6F" d="M1966 1244.375 L2327.375 1244.375 2327.375 883 1966 883 Z" fill="#000000" fill-opacity="1" stroke="none"/>
    <path id="6G" d="M2327 1244.375 L2688.375 1244.375 2688.375 883 2327 883 Z" fill="none" stroke="none"/>
    <path id="6H" d="M2688 1244.375 L3049.375 1244.375 3049.375 883 2688 883 Z" fill="#000000" fill-opacity="1" stroke="none"/>
   </g>
   <g id="Linea-7">
    <path id="7A" d="M161 883.375 L522.375 883.375 522.375 522 161 522 Z" fill="#000000" fill-opacity="1" stroke="none"/>
    <path id="7B" d="M522 883.375 L883.375 883.375 883.375 522 522 522 Z" fill="none" stroke="none"/>
    <path id="7C" d="M883 883.375 L1244.375 883.375 1244.375 522 883 522 Z" fill="#000000" fill-opacity="1" stroke="none"/>
    <path id="7D" d="M1244 883.375 L1605.375 883.375 1605.375 522 1244 522 Z" fill="none" stroke="none"/>
    <path id="7E" d="M1605 883.375 L1966.375 883.375 1966.375 522 1605 522 Z" fill="#000000" fill-opacity="1" stroke="none"/>
    <path id="7F" d="M1966 883.375 L2327.375 883.375 2327.375 522 1966 522 Z" fill="none" stroke="none"/>
    <path id="7G" d="M2327 883.375 L2688.375 883.375 2688.375 522 2327 522 Z" fill="#000000" fill-opacity="1" stroke="none"/>
    <path id="7H" d="M2688 883.375 L3049.375 883.375 3049.375 522 2688 522 Z" fill="none" stroke="none"/>
   </g>
   <g id="Linea-8">
    <path id="8A" d="M161 522.375 L522.375 522.375 522.375 161 161 161 Z" fill="none" stroke="none"/>
    <path id="8B" d="M522 522.375 L883.375 522.375 883.375 161 522 161 Z" fill="#000000" fill-opacity="1" stroke="none"/>
    <path id="8C" d="M883 522.375 L1244.375 522.375 1244.375 161 883 161 Z" fill="none" stroke="none"/>
    <path id="8D" d="M1244 522.375 L1605.375 522.375 1605.375 161 1244 161 Z" fill="#000000" fill-opacity="1" stroke="none"/>
    <path id="8E" d="M1605 522.375 L1966.375 522.375 1966.375 161 1605 161 Z" fill="none" stroke="none"/>
    <path id="8F" d="M1966 522.375 L2327.375 522.375 2327.375 161 1966 161 Z" fill="#000000" fill-opacity="1" stroke="none"/>
    <path id="8G" d="M2327 522.375 L2688.375 522.375 2688.375 161 2327 161 Z" fill="none" stroke="none"/>
    <path id="8H" d="M2688 522.375 L3049.375 522.375 3049.375 161 2688 161 Z" fill="#000000" fill-opacity="1" stroke="none"/>
   </g>
  </g>
  <g id="Indici">
   <g id="Righe-Dirette">
    <defs>
     <text id="string" transform="matrix(1.0 0.0 0.0 1.0 19.0 2801.0)" fill="#000000" text-decoration="none" x="35.630859375" font-size="120" font-family="Helvetica-Bold, Helvetica" y="110.0">1</text>
    </defs>
    <use id="1-" xlink:href="#string"/>
    <defs>
     <text id="string-1" transform="matrix(1.0 0.0 0.0 1.0 19.0 2436.0)" font-family="Helvetica-Bold, Helvetica" font-size="120" text-decoration="none" fill="#000000" x="35.630859375" y="110.0">2</text>
    </defs>
    <use id="2-" xlink:href="#string-1"/>
    <defs>
     <text id="string-2" transform="matrix(1.0 0.0 0.0 1.0 19.0 2075.0)" font-family="Helvetica-Bold, Helvetica" font-size="120" text-decoration="none" fill="#000000" x="35.630859375" y="110.0">3</text>
    </defs>
    <use id="3-" xlink:href="#string-2"/>
    <defs>
     <text id="string-3" transform="matrix(1.0 0.0 0.0 1.0 19.0 1716.0)" font-family="Helvetica-Bold, Helvetica" font-size="120" text-decoration="none" fill="#000000" x="35.630859375" y="110.0">4</text>
    </defs>
    <use id="4-" xlink:href="#string-3"/>
    <defs>
     <text id="string-4" transform="matrix(1.0 0.0 0.0 1.0 19.0 1354.0)" font-family="Helvetica-Bold, Helvetica" font-size="120" text-decoration="none" fill="#000000" x="35.630859375" y="110.0">5</text>
    </defs>
    <use id="5-" xlink:href="#string-4"/>
    <defs>
     <text id="string-5" transform="matrix(1.0 0.0 0.0 1.0 19.0 993.0)" y="110.0" text-decoration="none" x="35.630859375" font-family="Helvetica-Bold, Helvetica" fill="#000000" font-size="120">6</text>
    </defs>
    <use id="6-" xlink:href="#string-5"/>
    <defs>
     <text id="string-6" transform="matrix(1.0 0.0 0.0 1.0 19.0 633.0)" fill="#000000" font-size="120" font-family="Helvetica-Bold, Helvetica" x="35.630859375" y="110.0" text-decoration="none">7</text>
    </defs>
    <use id="7" xlink:href="#string-6"/>
    <defs>
     <text id="string-7" transform="matrix(1.0 0.0 0.0 1.0 19.0 272.0)" fill="#000000" font-size="120" font-family="Helvetica-Bold, Helvetica" x="35.630859375" y="110.0" text-decoration="none">8</text>
    </defs>
    <use id="8" xlink:href="#string-7"/>
   </g>
   <g id="Righe-Inverse">
    <defs>
     <text id="string-8" transform="matrix(-1.0 1.2246467991473532e-16 -1.2246467991473532e-16 -1.0 3194.0 2936.0)" fill="#000000" font-size="120" font-family="Helvetica-Bold, Helvetica" x="35.630859375" y="110.0" text-decoration="none">1</text>
    </defs>
    <use id="1" xlink:href="#string-8"/>
    <defs>
     <text id="string-9" transform="matrix(-1.0 1.2246467991473532e-16 -1.2246467991473532e-16 -1.0 3194.0 2575.0)" fill="#000000" font-size="120" font-family="Helvetica-Bold, Helvetica" x="35.630859375" y="110.0" text-decoration="none">2</text>
    </defs>
    <use id="2" xlink:href="#string-9"/>
    <defs>
     <text id="string-10" transform="matrix(-1.0 1.2246467991473532e-16 -1.2246467991473532e-16 -1.0 3194.0 2215.0)" fill="#000000" font-size="120" font-family="Helvetica-Bold, Helvetica" x="35.630859375" y="110.0" text-decoration="none">3</text>
    </defs>
    <use id="3--1" xlink:href="#string-10"/>
    <defs>
     <text id="string-11" transform="matrix(-1.0 1.2246467991473532e-16 -1.2246467991473532e-16 -1.0 3194.0 1854.0)" fill="#000000" font-size="120" font-family="Helvetica-Bold, Helvetica" x="35.630859375" y="110.0" text-decoration="none">4</text>
    </defs>
    <use id="4--1" xlink:href="#string-11"/>
    <defs>
     <text id="string-12" transform="matrix(-1.0 1.2246467991473532e-16 -1.2246467991473532e-16 -1.0 3194.0 1492.0)" fill="#000000" font-size="120" font-family="Helvetica-Bold, Helvetica" x="35.630859375" y="110.0" text-decoration="none">5</text>
    </defs>
    <use id="5--1" xlink:href="#string-12"/>
    <defs>
     <text id="string-13" transform="matrix(-1.0 1.2246467991473532e-16 -1.2246467991473532e-16 -1.0 3194.0 1133.0)" fill="#000000" text-decoration="none" x="35.630859375" font-size="120" font-family="Helvetica-Bold, Helvetica" y="110.0">6</text>
    </defs>
    <use id="6--1" xlink:href="#string-13"/>
    <defs>
     <text id="string-14" transform="matrix(-1.0 1.2246467991473532e-16 -1.2246467991473532e-16 -1.0 3194.0 772.0)" y="110.0" text-decoration="none" x="35.630859375" font-family="Helvetica-Bold, Helvetica" fill="#000000" font-size="120">7</text>
    </defs>
    <use id="7-" xlink:href="#string-14"/>
    <defs>
     <text id="string-15" transform="matrix(-1.0 1.2246467991473532e-16 -1.2246467991473532e-16 -1.0 3194.0 407.0)" font-family="Helvetica-Bold, Helvetica" font-size="120" text-decoration="none" fill="#000000" x="35.630859375" y="110.0">8</text>
    </defs>
    <use id="8-" xlink:href="#string-15"/>
   </g>
   <g id="Colonne-Dirette">
    <defs>
     <text id="string-16" transform="matrix(1.0 0.0 0.0 1.0 2800.0 3056.0)" font-family="Helvetica-Bold, Helvetica" font-size="120" text-decoration="none" fill="#000000" x="25.669921875" y="110.0">H</text>
    </defs>
    <use id="H" xlink:href="#string-16"/>
    <defs>
     <text id="string-17" transform="matrix(1.0 0.0 0.0 1.0 2439.0 3056.0)" font-family="Helvetica-Bold, Helvetica" font-size="120" text-decoration="none" fill="#000000" x="22.330078125" y="110.0">G</text>
    </defs>
    <use id="G" xlink:href="#string-17"/>
    <defs>
     <text id="string-18" transform="matrix(1.0 0.0 0.0 1.0 2078.0 3056.0)" y="110.0" text-decoration="none" x="32.349609375" font-family="Helvetica-Bold, Helvetica" fill="#000000" font-size="120">F</text>
    </defs>
    <use id="F" xlink:href="#string-18"/>
    <defs>
     <text id="string-19" transform="matrix(1.0 0.0 0.0 1.0 1717.0 3056.0)" fill="#000000" font-size="120" font-family="Helvetica-Bold, Helvetica" x="28.98046875" y="110.0" text-decoration="none">E</text>
    </defs>
    <use id="E" xlink:href="#string-19"/>
    <defs>
     <text id="string-20" transform="matrix(1.0 0.0 0.0 1.0 1356.0 3056.0)" fill="#000000" font-size="120" font-family="Helvetica-Bold, Helvetica" x="25.669921875" y="110.0" text-decoration="none">D</text>
    </defs>
    <use id="D" xlink:href="#string-20"/>
    <defs>
     <text id="string-21" transform="matrix(1.0 0.0 0.0 1.0 995.0 3056.0)" fill="#000000" font-size="120" font-family="Helvetica-Bold, Helvetica" x="25.669921875" y="110.0" text-decoration="none">C</text>
    </defs>
    <use id="C" xlink:href="#string-21"/>
    <defs>
     <text id="string-22" transform="matrix(1.0 0.0 0.0 1.0 634.0 3056.0)" fill="#000000" font-size="120" font-family="Helvetica-Bold, Helvetica" x="25.669921875" y="110.0" text-decoration="none">B</text>
    </defs>
    <use id="B" xlink:href="#string-22"/>
    <defs>
     <text id="string-23" transform="matrix(1.0 0.0 0.0 1.0 273.0 3056.0)" fill="#000000" font-size="120" font-family="Helvetica-Bold, Helvetica" x="25.669921875" y="110.0" text-decoration="none">A</text>
    </defs>
    <use id="A" xlink:href="#string-23"/>
   </g>
   <g id="Colonne-Inverse">
    <defs>
     <text id="string-24" transform="matrix(-1.0 1.2246467991473532e-16 -1.2246467991473532e-16 -1.0 2939.0 157.0)" fill="#000000" font-size="120" font-family="Helvetica-Bold, Helvetica" x="25.669921875" y="110.0" text-decoration="none">H</text>
    </defs>
    <use id="H-1" xlink:href="#string-24"/>
    <defs>
     <text id="string-25" transform="matrix(-1.0 1.2246467991473532e-16 -1.2246467991473532e-16 -1.0 2578.0 157.0)" y="110.0" text-decoration="none" x="22.330078125" font-family="Helvetica-Bold, Helvetica" fill="#000000" font-size="120">G</text>
    </defs>
    <use id="G-1" xlink:href="#string-25"/>
    <defs>
     <text id="string-26" transform="matrix(-1.0 1.2246467991473532e-16 -1.2246467991473532e-16 -1.0 2217.0 157.0)" fill="#000000" text-decoration="none" x="32.349609375" font-size="120" font-family="Helvetica-Bold, Helvetica" y="110.0">F</text>
    </defs>
    <use id="F-1" xlink:href="#string-26"/>
    <defs>
     <text id="string-27" transform="matrix(-1.0 1.2246467991473532e-16 -1.2246467991473532e-16 -1.0 1856.0 157.0)" y="110.0" text-decoration="none" x="28.98046875" font-family="Helvetica-Bold, Helvetica" fill="#000000" font-size="120">E</text>
    </defs>
    <use id="E-1" xlink:href="#string-27"/>
    <defs>
     <text id="string-28" transform="matrix(-1.0 1.2246467991473532e-16 -1.2246467991473532e-16 -1.0 1495.0 157.0)" font-family="Helvetica-Bold, Helvetica" font-size="120" y="110.0" text-decoration="none" fill="#000000" x="25.669921875">D</text>
    </defs>
    <use id="D-1" xlink:href="#string-28"/>
    <defs>
     <text id="string-29" transform="matrix(-1.0 1.2246467991473532e-16 -1.2246467991473532e-16 -1.0 1134.0 157.0)" y="110.0" text-decoration="none" x="25.669921875" font-family="Helvetica-Bold, Helvetica" fill="#000000" font-size="120">C</text>
    </defs>
    <use id="C-1" xlink:href="#string-29"/>
    <defs>
     <text id="string-30" transform="matrix(-1.0 1.2246467991473532e-16 -1.2246467991473532e-16 -1.0 773.0 157.0)" fill="#000000" font-size="120" font-family="Helvetica-Bold, Helvetica" x="25.669921875" y="110.0" text-decoration="none">B</text>
    </defs>
    <use id="B-1" xlink:href="#string-30"/>
    <defs>
     <text id="string-31" transform="matrix(-1.0 1.2246467991473532e-16 -1.2246467991473532e-16 -1.0 412.0 157.0)" fill="#000000" font-size="120" font-family="Helvetica-Bold, Helvetica" x="25.669921875" y="110.0" text-decoration="none">A</text>
    </defs>
    <use id="A-1" xlink:href="#string-31"/>
   </g>
  </g>
 </g>
</svg>
